<?xml version="1.0" standalone="no"?>
<!DOCTYPE svg PUBLIC "-//W3C//DTD SVG 20010904//EN"
 "http://www.w3.org/TR/2001/REC-SVG-20010904/DTD/svg10.dtd">
<svg version="1.0" xmlns="http://www.w3.org/2000/svg"
 width="495.000000pt" height="150.000000pt" viewBox="0 0 495.000000 150.000000"
 preserveAspectRatio="xMidYMid meet">
<metadata>
Created by potrace 1.16, written by Peter Selinger 2001-2019
</metadata>
<g transform="translate(0.000000,150.000000) scale(0.100000,-0.100000)"
fill="#000000" stroke="none">
<path d="M240 1224 c0 -4 18 -53 39 -108 53 -135 91 -269 91 -320 0 -60 -33
-169 -94 -311 l-53 -125 92 0 92 0 32 108 c18 59 39 151 48 204 l16 97 -27 83
c-15 46 -57 148 -94 228 l-67 145 -38 3 c-20 2 -37 0 -37 -4z"/>
<path d="M350 1226 c0 -2 29 -63 64 -137 87 -183 116 -267 116 -340 0 -72 -20
-173 -59 -297 l-29 -92 83 0 c71 0 84 3 89 18 14 47 39 246 40 317 1 102 -13
143 -121 363 l-85 172 -49 0 c-27 0 -49 -2 -49 -4z"/>
<path d="M570 1058 c105 -212 120 -256 120 -362 0 -71 -18 -225 -36 -309 l-6
-27 93 0 92 0 -5 198 c-7 255 -11 266 -187 550 l-75 122 -41 0 -41 0 86 -172z"/>
<path d="M681 1106 c43 -69 100 -167 124 -218 41 -84 46 -104 55 -198 5 -58 9
-156 10 -217 l0 -113 75 0 c45 0 75 4 75 10 0 6 -16 105 -35 220 -42 257 -58
292 -238 543 -68 93 -72 97 -108 97 l-38 0 80 -124z"/>
<path d="M720 1225 c0 -2 32 -48 70 -101 78 -108 162 -243 186 -299 11 -26 84
-426 84 -460 0 -3 27 -5 60 -5 49 0 60 3 60 16 0 27 -59 284 -85 369 -26 87
-73 171 -171 307 -134 187 -125 177 -166 178 -21 0 -38 -2 -38 -5z"/>
<path d="M1420 795 l0 -275 60 0 60 0 0 110 0 109 113 3 112 3 3 48 3 47 -115
0 -116 0 0 65 0 65 130 0 130 0 0 50 0 50 -190 0 -190 0 0 -275z"/>
<path d="M2490 1020 l0 -50 80 0 80 0 0 -225 0 -225 60 0 60 0 2 223 3 222 83
3 82 3 0 49 0 50 -225 0 -225 0 0 -50z"/>
<path d="M4120 795 l0 -275 50 0 50 0 0 63 c0 54 4 67 24 86 l25 23 34 -53
c18 -30 42 -69 52 -86 19 -32 22 -33 82 -33 35 0 63 2 63 5 0 3 -36 59 -79
124 l-79 118 71 71 72 72 -66 0 -67 0 -57 -65 c-31 -36 -61 -65 -66 -65 -5 0
-9 64 -9 145 l0 145 -50 0 -50 0 0 -275z"/>
<path d="M2255 918 c-22 -5 -52 -21 -67 -35 l-28 -27 0 27 c0 26 -2 27 -50 27
l-50 0 0 -195 0 -195 55 0 55 0 0 126 c0 125 7 156 39 181 20 15 56 16 81 3
28 -15 40 -72 40 -197 l0 -113 50 0 50 0 0 158 c0 168 -6 192 -50 223 -33 22
-75 28 -125 17z"/>
<path d="M3122 919 c-19 -4 -49 -22 -68 -40 l-34 -33 0 32 c0 32 0 32 -50 32
l-50 0 0 -195 0 -195 54 0 54 0 4 125 c3 119 4 126 29 151 21 20 36 26 73 26
l46 0 0 48 c0 53 -8 60 -58 49z"/>
<path d="M3348 919 c-74 -12 -128 -58 -128 -108 0 -18 6 -21 49 -21 45 0 51 3
63 28 11 23 20 27 59 30 66 4 97 -30 67 -71 -9 -11 -39 -20 -88 -27 -41 -6
-91 -19 -110 -29 -73 -38 -77 -147 -6 -190 44 -28 128 -28 181 -1 47 24 45 24
45 5 0 -11 13 -15 53 -15 l52 0 -3 152 c-2 95 -8 164 -17 183 -22 53 -116 81
-217 64z m122 -233 c0 -37 -20 -86 -40 -96 -29 -15 -81 -12 -102 7 -41 37 -13
77 68 96 32 8 62 15 67 16 4 1 7 -10 7 -23z"/>
<path d="M3812 919 c-103 -19 -157 -89 -157 -204 0 -81 18 -120 78 -168 30
-25 49 -32 97 -35 107 -8 189 43 206 126 l7 32 -52 0 c-49 0 -53 -2 -63 -30
-11 -34 -35 -50 -73 -50 -64 0 -100 53 -93 137 7 76 32 107 92 111 43 3 48 1
64 -27 16 -28 21 -31 71 -31 53 0 53 0 46 28 -7 31 -49 78 -85 96 -36 19 -88
24 -138 15z"/>
<path d="M1870 715 l0 -195 50 0 50 0 0 195 0 195 -50 0 -50 0 0 -195z"/>
</g>
</svg>
